<svg width="161" height="56" viewBox="0 0 161 56" fill="none" xmlns="http://www.w3.org/2000/svg">
<path d="M86.4562 4.2322L77.6755 0L68.8334 4.2322L60.0527 0V10.2432H77.6755H95.2983V0L86.4562 4.2322Z" fill="#F4F4F4"/>
<path d="M7.98246 44.8372H0V27.6631H11.7895V30.2392H2.94737V34.2874H7.98246C9.51754 34.2874 10.6842 34.7781 11.5439 35.6981C12.4035 36.6182 12.8333 37.9062 12.8333 39.5623C12.8333 41.1571 12.4035 42.4451 11.5439 43.4265C10.6842 44.3465 9.51754 44.8372 7.98246 44.8372ZM2.94737 36.8635V42.2611H7.49123C8.16667 42.2611 8.7807 42.0158 9.21053 41.5251C9.64035 41.0344 9.88596 40.3597 9.88596 39.5623C9.88596 38.7036 9.64035 38.0289 9.21053 37.5996C8.7807 37.1089 8.22807 36.8635 7.49123 36.8635H2.94737Z" fill="#F4F4F4"/>
<path d="M19.4036 45.1439C18.1141 45.1439 17.1317 44.8373 16.3334 44.1626C15.5352 43.4879 15.1667 42.5678 15.1667 41.4024C15.1667 40.053 15.5966 39.0717 16.5176 38.3356C17.3773 37.6609 18.7282 37.2929 20.4474 37.2929H23.272V36.3115C23.272 34.9621 22.4738 34.2874 20.8773 34.2874C20.079 34.2874 19.5264 34.4714 19.0966 34.7781C18.6667 35.0848 18.4825 35.5755 18.4825 36.1275H15.8422C15.8422 34.7781 16.272 33.7354 17.1317 32.9994C17.9913 32.2633 19.2194 31.834 20.8773 31.834C22.5352 31.834 23.7632 32.202 24.6843 32.9994C25.5439 33.7967 26.0352 34.8395 26.0352 36.1889V44.8986H24.4387L23.3334 43.4265C22.4124 44.5306 21.0615 45.1439 19.4036 45.1439ZM19.9562 42.6905C21.2457 42.6905 22.2896 42.1998 23.2106 41.2184V39.317H20.386C18.6667 39.317 17.8071 39.869 17.8071 41.0344C17.8685 42.1385 18.5439 42.6905 19.9562 42.6905Z" fill="#F4F4F4"/>
<path d="M32.421 48.7626H29.7192V32.0791H31.3157L32.2982 33.4899C33.2192 32.3245 34.5087 31.7725 36.1052 31.7725C37.3947 31.7725 38.4999 32.2018 39.2982 32.9992C40.1578 33.7966 40.5877 34.9619 40.5877 36.4954V40.4822C40.5877 42.0156 40.1578 43.1197 39.2982 43.9784C38.4385 44.7757 37.3333 45.2051 35.921 45.2051C34.3859 45.2051 33.1578 44.7144 32.3596 43.6717V48.7626H32.421ZM35.5526 42.6903C36.228 42.6903 36.842 42.445 37.2719 42.0156C37.7017 41.5863 37.9473 40.9729 37.9473 40.2369V36.6794C37.9473 35.9433 37.7017 35.3913 37.2719 34.9006C36.842 34.4713 36.228 34.2259 35.5526 34.2259C34.5087 34.2259 33.4649 34.7779 32.421 35.882V41.0342C33.4649 42.1383 34.5087 42.6903 35.5526 42.6903Z" fill="#F4F4F4"/>
<path d="M48.9999 45.1439C47.342 45.1439 46.0526 44.7146 45.1315 43.8559C44.1491 42.9972 43.7192 41.8318 43.7192 40.4211V36.5569C43.7192 35.0848 44.2105 33.9194 45.1315 33.122C46.114 32.2633 47.4035 31.834 48.9999 31.834C50.5964 31.834 51.8859 32.2633 52.807 33.0607C53.728 33.9194 54.2192 35.0235 54.2192 36.4955V36.6182H51.5175V36.4955C51.5175 35.8208 51.2719 35.2688 50.842 34.8395C50.4122 34.4101 49.7982 34.2261 48.9999 34.2261C48.1403 34.2261 47.5263 34.4101 47.035 34.8395C46.5438 35.2688 46.3596 35.7595 46.3596 36.4955V40.4824C46.3596 41.1571 46.6052 41.7091 47.035 42.1385C47.4649 42.5065 48.1403 42.7518 48.9999 42.7518C49.7982 42.7518 50.4122 42.5678 50.842 42.1385C51.2719 41.7091 51.5175 41.2184 51.5175 40.4824V40.237H54.2192V40.4211C54.2192 41.8318 53.728 42.9972 52.7456 43.8559C51.7631 44.7146 50.535 45.1439 48.9999 45.1439Z" fill="#F4F4F4"/>
<path d="M60.1754 44.837H57.4736V32.0791H60.1754V37.2927H61.8947L65.5789 32.0791H67.7894V33.3672L64.228 38.3354L67.9736 43.6103V44.8984H65.5175L61.7719 39.6848H60.1754V44.837Z" fill="#F4F4F4"/>
<path d="M73.6842 44.837H70.9824V32.0791H73.6842V40.6662L79.3333 32.0791H82.0351V44.837H79.3333V36.25L73.6842 44.837Z" fill="#F4F4F4"/>
<path d="M88.6666 44.8372H85.9648V32.0793H88.6666V40.6663L94.3157 32.0793H97.0175V44.8372H94.3157V36.2501L88.6666 44.8372ZM87.4999 27.479V27.1724H89.8333V27.4177C89.8333 28.3378 90.3859 28.8284 91.4912 28.8284C92.5964 28.8284 93.1491 28.3378 93.1491 27.4177V27.1724H95.421V27.479C95.421 28.5218 95.0526 29.3191 94.3157 29.9325C93.5789 30.5459 92.6578 30.8525 91.4298 30.8525C90.2631 30.8525 89.2806 30.5459 88.5438 29.9325C87.8684 29.3191 87.4999 28.5218 87.4999 27.479Z" fill="#F4F4F4"/>
<path d="M108.193 47.9042H105.553V42.4452H106.719C107.64 41.5865 108.07 39.9304 108.07 37.5383V32.0181H117.711V42.4452H119.614V47.9042H116.974V44.8373H108.193V47.9042ZM109.667 42.5066H115.07V34.4102H110.649V38.029C110.649 39.7464 110.342 41.2185 109.667 42.5066Z" fill="#F4F4F4"/>
<path d="M128.518 44.837H122.439V32.0791H128.272C131.097 32.0791 132.57 33.1832 132.57 35.4526C132.57 36.7407 132.079 37.6607 131.158 38.2741C132.509 38.7648 133.123 39.7461 133.123 41.1569C133.123 42.5063 132.754 43.4263 131.956 43.9783C131.158 44.5304 130.053 44.837 128.518 44.837ZM125.14 34.4099V37.4154H128.149C129.193 37.4154 129.684 36.9247 129.684 35.9433C129.684 34.9619 129.193 34.4712 128.149 34.4712H125.14V34.4099ZM125.14 39.4395V42.4449H128.702C129.746 42.4449 130.237 41.9542 130.237 40.9115C130.237 39.9301 129.746 39.4395 128.702 39.4395H125.14Z" fill="#F4F4F4"/>
<path d="M135.824 40.4211V36.5569C135.824 35.1461 136.316 33.9808 137.237 33.122C138.219 32.2633 139.509 31.834 141.228 31.834C142.947 31.834 144.298 32.2633 145.219 33.122C146.202 33.9808 146.631 35.1461 146.631 36.5569V40.4211C146.631 41.8318 146.14 42.9972 145.219 43.8559C144.237 44.7146 142.947 45.1439 141.228 45.1439C139.509 45.1439 138.158 44.7146 137.237 43.8559C136.254 42.9358 135.824 41.8318 135.824 40.4211ZM143.991 40.2984V36.6795C143.991 35.9435 143.746 35.3915 143.254 34.9621C142.763 34.5328 142.088 34.2874 141.228 34.2874C140.368 34.2874 139.693 34.5328 139.202 34.9621C138.71 35.3915 138.465 36.0048 138.465 36.6795V40.2984C138.465 41.0344 138.71 41.5864 139.202 42.0158C139.693 42.4452 140.368 42.6905 141.228 42.6905C142.088 42.6905 142.763 42.4452 143.254 42.0158C143.746 41.5864 143.991 40.9731 143.991 40.2984Z" fill="#F4F4F4"/>
<path d="M152.772 48.7626H150.07V32.0791H151.667L152.649 33.4899C153.57 32.3245 154.86 31.7725 156.456 31.7725C157.746 31.7725 158.851 32.2018 159.649 32.9992C160.509 33.7966 160.939 34.9619 160.939 36.4954V40.4822C160.939 42.0156 160.509 43.1197 159.649 43.9784C158.79 44.7757 157.684 45.2051 156.272 45.2051C154.737 45.2051 153.509 44.7144 152.711 43.6717V48.7626H152.772ZM155.842 42.6903C156.518 42.6903 157.132 42.445 157.562 42.0156C157.991 41.5863 158.237 40.9729 158.237 40.2369V36.6794C158.237 35.9433 157.991 35.3913 157.562 34.9006C157.132 34.4713 156.518 34.2259 155.842 34.2259C154.798 34.2259 153.755 34.7779 152.711 35.882V41.0342C153.816 42.1383 154.86 42.6903 155.842 42.6903Z" fill="#F4F4F4"/>
<path d="M72.8246 55.8775H69.6316V55.3868L71.1667 53.8534L71.5965 53.4241C71.7193 53.3014 71.7807 53.1787 71.9035 53.0561C72.0877 52.8107 72.2105 52.504 72.2105 52.2587C72.2105 51.952 72.1491 51.7067 71.9649 51.5227C71.7807 51.3386 71.5351 51.2773 71.2281 51.2773C70.9211 51.2773 70.6755 51.4 70.4912 51.584C70.307 51.768 70.2456 52.0747 70.2456 52.4427H69.693C69.693 51.952 69.8772 51.5227 70.1228 51.216C70.4298 50.9093 70.7983 50.7866 71.2895 50.7866C71.7807 50.7866 72.1491 50.9093 72.4562 51.216C72.7632 51.5227 72.886 51.8293 72.886 52.32C72.886 52.688 72.7632 53.0561 72.5176 53.4241C72.3947 53.6081 72.2719 53.7308 72.1491 53.8534C72.0877 53.9148 71.9035 54.0988 71.7193 54.2828L70.5526 55.4482H72.9474V55.8775H72.8246Z" fill="#F4F4F4"/>
<path d="M75.5263 56.0002C75.0351 56.0002 74.6052 55.8775 74.2982 55.5708C73.9912 55.2642 73.8684 54.8348 73.8684 54.3441V52.4427C73.8684 51.952 73.9912 51.5227 74.2982 51.216C74.6052 50.9093 74.9737 50.7866 75.5263 50.7866C76.0175 50.7866 76.4473 50.9093 76.7544 51.216C77.0614 51.5227 77.1842 51.952 77.1842 52.4427V54.3441C77.1842 54.8348 77.0614 55.2642 76.7544 55.5708C76.4473 55.8775 76.0175 56.0002 75.5263 56.0002ZM76.5702 54.3441V52.3814C76.5702 52.0133 76.4473 51.768 76.2631 51.584C76.0789 51.4 75.8333 51.2773 75.4649 51.2773C75.1579 51.2773 74.8509 51.4 74.6666 51.584C74.4824 51.768 74.3596 52.0747 74.3596 52.3814V54.3441C74.3596 54.7121 74.4824 54.9575 74.6666 55.1415C74.8509 55.3255 75.0965 55.4482 75.4649 55.4482C75.7719 55.4482 76.0789 55.3255 76.2631 55.1415C76.5088 54.9575 76.5702 54.7121 76.5702 54.3441Z" fill="#F4F4F4"/>
<path d="M79.8859 56.0002C79.3947 56.0002 78.9649 55.8775 78.6579 55.5708C78.3508 55.2642 78.228 54.8348 78.228 54.3441V52.4427C78.228 51.952 78.3508 51.5227 78.6579 51.216C78.9649 50.9093 79.3333 50.7866 79.8859 50.7866C80.3772 50.7866 80.807 50.9093 81.114 51.216C81.421 51.5227 81.5438 51.952 81.5438 52.4427V54.3441C81.5438 54.8348 81.421 55.2642 81.114 55.5708C80.807 55.8775 80.3772 56.0002 79.8859 56.0002ZM80.9298 54.3441V52.3814C80.9298 52.0133 80.807 51.768 80.6228 51.584C80.4386 51.4 80.1929 51.2773 79.8245 51.2773C79.4561 51.2773 79.2105 51.4 79.0263 51.584C78.8421 51.768 78.7193 52.0747 78.7193 52.3814V54.3441C78.7193 54.7121 78.8421 54.9575 79.0263 55.1415C79.2105 55.3255 79.4561 55.4482 79.8245 55.4482C80.1929 55.4482 80.4386 55.3255 80.6228 55.1415C80.807 54.9575 80.9298 54.7121 80.9298 54.3441Z" fill="#F4F4F4"/>
<path d="M84.1841 56.0001C83.6929 56.0001 83.3245 55.8774 83.0175 55.6321C82.7105 55.3867 82.5262 55.0187 82.4648 54.5894H83.0175C83.0789 54.896 83.2017 55.08 83.3859 55.2641C83.5701 55.4481 83.8157 55.5094 84.1227 55.5094C84.4912 55.5094 84.7368 55.3867 84.921 55.2027C85.1052 54.9574 85.1666 54.6507 85.1666 54.2827C85.1666 53.9147 85.0438 53.608 84.8596 53.424C84.6754 53.24 84.4298 53.1173 84.1227 53.1173C83.7543 53.1173 83.4473 53.24 83.2017 53.5466H82.6491L82.8947 50.9092H85.4736V51.4612H83.3859L83.2631 52.9946C83.5701 52.7493 83.8771 52.6266 84.307 52.6266C84.7368 52.6266 85.1052 52.7493 85.4122 53.0559C85.7192 53.3013 85.842 53.7306 85.842 54.2827C85.842 54.8347 85.7192 55.2641 85.4122 55.5707C85.1052 55.8774 84.7368 56.0001 84.1841 56.0001Z" fill="#F4F4F4"/>
<path d="M53.6667 18.1557H52.2544V15.0889H54.3421V15.5182H52.807V16.2543H53.7281C53.9737 16.2543 54.2193 16.3156 54.3421 16.4996C54.4649 16.6836 54.5877 16.8676 54.5877 17.1743C54.5877 17.481 54.5263 17.665 54.3421 17.849C54.1579 18.033 53.9737 18.1557 53.6667 18.1557ZM52.807 16.7449V17.7263H53.6053C53.7281 17.7263 53.8509 17.665 53.9123 17.6037C53.9737 17.5423 54.0351 17.4196 54.0351 17.2356C54.0351 17.0516 53.9737 16.9903 53.9123 16.8676C53.8509 16.8063 53.7281 16.7449 53.6053 16.7449H52.807Z" fill="#F4F4F4"/>
<path d="M57.5352 18.1557H55.5703V15.0889H57.5352V15.5182H56.1229V16.3769H57.351V16.8063H56.1229V17.665H57.5966V18.1557H57.5352Z" fill="#F4F4F4"/>
<path d="M59.7458 18.1559H59.1931V15.5797H58.3335V15.1504H60.6668V15.5797H59.8072V18.1559H59.7458Z" fill="#F4F4F4"/>
<path d="M61.4648 17.1133V16.1319C61.4648 15.7639 61.5877 15.5185 61.7719 15.3345C62.0175 15.1505 62.2631 15.0278 62.6315 15.0278C62.9999 15.0278 63.307 15.1505 63.4912 15.3345C63.7368 15.5185 63.7982 15.8252 63.7982 16.1319V17.1133C63.7982 17.4813 63.6754 17.7266 63.4912 17.9106C63.2456 18.0946 62.9999 18.2173 62.6315 18.2173C62.2631 18.2173 61.9561 18.0946 61.7719 17.9106C61.5262 17.7266 61.4648 17.4199 61.4648 17.1133ZM63.307 17.1133V16.0705C63.307 15.8865 63.2456 15.7639 63.1227 15.6412C62.9999 15.5185 62.8157 15.4572 62.6315 15.4572C62.4473 15.4572 62.2631 15.5185 62.1403 15.6412C62.0175 15.7639 61.9561 15.8865 61.9561 16.0705V17.1133C61.9561 17.2973 62.0175 17.4199 62.1403 17.5426C62.2631 17.6653 62.4473 17.7266 62.6315 17.7266C62.8157 17.7266 62.9999 17.6653 63.1227 17.5426C63.2456 17.4199 63.307 17.2973 63.307 17.1133Z" fill="#F4F4F4"/>
<path d="M65.5175 18.1557H64.9648V15.0889H65.5175V16.3769H66.807V15.0889H67.3596V18.1557H66.807V16.8676H65.5175V18.1557Z" fill="#F4F4F4"/>
<path d="M69.079 18.1557H68.5264V15.0889H69.079V16.3769H70.3685V15.0889H70.9211V18.1557H70.3685V16.8676H69.079V18.1557Z" fill="#F4F4F4"/>
<path d="M73.4385 18.1557H72.0876V15.0889H72.6403V16.2543H73.4385C73.6841 16.2543 73.9297 16.3156 74.0526 16.4996C74.1754 16.6836 74.2982 16.8676 74.2982 17.1743C74.2982 17.481 74.2368 17.665 74.0526 17.849C73.8683 18.033 73.6841 18.1557 73.4385 18.1557ZM73.3157 16.7449H72.5789V17.7263H73.3157C73.4385 17.7263 73.5613 17.665 73.6227 17.6037C73.6841 17.5423 73.7455 17.4196 73.7455 17.2356C73.7455 17.0516 73.6841 16.9903 73.6227 16.8676C73.5613 16.7449 73.4385 16.7449 73.3157 16.7449ZM75.1578 18.1557H74.6052V15.0889H75.1578V18.1557Z" fill="#F4F4F4"/>
<path d="M78.4124 18.1557H76.4475V15.0889H78.4124V15.5182H77.0001V16.3769H78.2282V16.8063H77.0001V17.665H78.4738V18.1557H78.4124Z" fill="#F4F4F4"/>
<path d="M81.4212 18.156H80.9299V15.0892H81.4826V17.1746L82.8334 15.0278H83.3247V18.0946H82.772V15.9479L81.4212 18.156Z" fill="#F4F4F4"/>
<path d="M86.3333 17.9718C86.1491 18.1558 85.8421 18.2171 85.5351 18.2171C85.1667 18.2171 84.921 18.1558 84.6754 17.9718C84.4298 17.7878 84.3684 17.5424 84.3684 17.1744H84.921C84.921 17.3584 84.9825 17.4811 85.1053 17.6038C85.2281 17.7264 85.4123 17.7264 85.5965 17.7264C85.7807 17.7264 85.9035 17.6651 86.0263 17.6038C86.1491 17.5424 86.1491 17.4198 86.1491 17.2357C86.1491 17.1131 86.0877 16.9904 86.0263 16.9291C85.9035 16.8677 85.7807 16.8064 85.5965 16.8064H85.1667V16.377H85.5965C85.7193 16.377 85.8421 16.3157 85.9649 16.2544C86.0263 16.193 86.0877 16.0704 86.0877 15.9477C86.0877 15.825 86.0263 15.7023 85.9649 15.5797C85.9035 15.457 85.7193 15.457 85.5965 15.457C85.4123 15.457 85.2895 15.5183 85.1667 15.5797C85.0438 15.641 84.9824 15.825 84.9824 16.009H84.4298C84.4298 15.641 84.5526 15.3957 84.7368 15.2117C84.921 15.0276 85.2281 14.9663 85.5351 14.9663C85.8421 14.9663 86.1491 15.0276 86.3333 15.2117C86.5175 15.3957 86.6403 15.5797 86.6403 15.8864C86.6403 16.193 86.5175 16.4384 86.2105 16.5611C86.5175 16.6837 86.7017 16.9291 86.7017 17.2357C86.5789 17.5424 86.5175 17.7878 86.3333 17.9718Z" fill="#F4F4F4"/>
<path d="M87.8684 18.7692H87.3772V17.7265H87.6228C87.7456 17.6038 87.807 17.4198 87.8684 17.2358C87.9298 17.0518 87.9298 16.8065 87.9298 16.4998V15.1504H89.8333V17.7265H90.2018V18.7692H89.7105V18.1559H87.8684V18.7692ZM88.1754 17.6652H89.3421V15.5184H88.4211V16.4385C88.4211 16.6838 88.4211 16.8678 88.3596 17.0518C88.2982 17.2358 88.2982 17.3585 88.2982 17.4198C88.2982 17.4812 88.2368 17.5425 88.1754 17.6652Z" fill="#F4F4F4"/>
<path d="M93.1492 18.1557H91.1843V15.0889H93.1492V15.5182H91.737V16.3769H92.965V16.8063H91.737V17.665H93.2106V18.1557H93.1492Z" fill="#F4F4F4"/>
<path d="M93.9475 18.1557H93.8247V17.665H93.8861C94.0703 17.665 94.1931 17.6037 94.2545 17.4196C94.3159 17.2356 94.3773 16.9903 94.3773 16.5609V15.0889H96.2808V18.1557H95.7282V15.5796H94.8072V16.7449C94.93 17.665 94.623 18.1557 93.9475 18.1557Z" fill="#F4F4F4"/>
<path d="M98.0613 18.156H97.5701V15.0892H98.1227V17.1746L99.4736 15.0278H99.9648V18.0946H99.4122V15.9479L98.0613 18.156Z" fill="#F4F4F4"/>
<path d="M101.438 18.1557H100.947V17.9717L101.561 16.929C101.377 16.8676 101.254 16.7449 101.131 16.6223C101.009 16.4996 101.009 16.2543 101.009 16.0702C101.009 15.7636 101.07 15.5182 101.254 15.3342C101.438 15.1502 101.623 15.0889 101.93 15.0889H103.219V18.1557H102.667V16.9903H102.114L101.438 18.1557ZM102.053 16.5609H102.667V15.5182H102.053C101.746 15.5182 101.561 15.7022 101.561 16.0089C101.5 16.3769 101.684 16.5609 102.053 16.5609Z" fill="#F4F4F4"/>
<path d="M48.7544 22.5718H106.597" stroke="#F4F4F4" stroke-width="2" stroke-miterlimit="10"/>
<path d="M48.7544 53.7305H66.3158" stroke="#F4F4F4" stroke-width="2" stroke-miterlimit="10"/>
<path d="M89.0352 53.7305H106.597" stroke="#F4F4F4" stroke-width="2" stroke-miterlimit="10"/>
</svg>
