<svg width="74" height="74" viewBox="0 0 74 74" fill="none" xmlns="http://www.w3.org/2000/svg">
<g clip-path="url(#clip0)">
<path d="M36.9403 8.66736C26.3781 8.66736 17.7852 17.2605 17.7852 27.8225C17.7852 38.3846 26.3783 46.9777 36.9403 46.9777C47.5024 46.9777 56.0955 38.3847 56.0955 27.8225C56.0955 17.2603 47.5025 8.66736 36.9403 8.66736ZM36.9402 44.709C27.629 44.709 20.054 37.1338 20.054 27.8228C20.054 18.5118 27.6292 10.9364 36.9402 10.9364C46.2512 10.9364 53.8265 18.5115 53.8265 27.8225C53.8265 37.1335 46.2513 44.709 36.9402 44.709Z" fill="#F4F4F4"/>
<path d="M47.8009 25.1389L40.2947 24.0483L36.9378 17.2463L33.5809 24.0483L26.0747 25.1389L31.5062 30.4332L30.2241 37.9092L36.9378 34.3797L43.6516 37.9092L42.3694 30.4332L47.8009 25.1389ZM36.9378 31.8162L33.2377 33.7615L33.9443 29.641L30.9508 26.7231L35.0878 26.122L36.938 22.3733L38.7881 26.122L42.9252 26.7231L39.9316 29.641L40.6382 33.7615L36.9378 31.8162Z" fill="#F4F4F4"/>
<path d="M65.3037 3.66277V1.92059H63.0347V3.66277H61.2925V5.93177H63.0347V7.67395H65.3037V5.93177H67.0458V3.66277H65.3037Z" fill="#F4F4F4"/>
<path d="M72.2592 50.3673V48.6251H69.9902V50.3673H68.248V52.6364H69.9902V54.3785H72.2592V52.6364H74.0014V50.3673H72.2592Z" fill="#F4F4F4"/>
<path d="M32.5269 68.7045V66.9623H30.2579V68.7045H28.5156V70.9735H30.2579V72.7156H32.5269V70.9735H34.2691V68.7045H32.5269Z" fill="#F4F4F4"/>
<path d="M4.56618 23.4662V21.1691H2.29718V23.4662H0V25.7352H2.29718V28.0324H4.56618V25.7352H6.86336V23.4662H4.56618Z" fill="#F4F4F4"/>
<path d="M36.9377 12.853C28.6835 12.853 21.968 19.5684 21.968 27.8227C21.968 36.077 28.6835 42.7922 36.9377 42.7922C45.1919 42.7922 51.9074 36.0769 51.9074 27.8226C51.9074 19.5682 45.1922 12.853 36.9377 12.853ZM36.9377 40.5232C29.9346 40.5232 24.237 34.8257 24.237 27.8227C24.237 20.8196 29.9346 15.122 36.9377 15.122C43.9408 15.122 49.6384 20.8196 49.6384 27.8227C49.6384 34.8258 43.941 40.5232 36.9377 40.5232Z" fill="#F4F4F4"/>
<path d="M55.2223 45.9112L60.1719 44.7039L59.4598 35.1403L65.6553 27.8228L59.4598 20.5052L60.1719 10.9417L50.854 8.66893L45.8156 0.505371L36.9403 4.15045L28.0649 0.505371L23.0268 8.66893L13.7089 10.9417L14.421 20.5052L8.22552 27.8228L14.421 35.1403L13.7089 44.7039L18.6585 45.9112L2.87988 61.6898L12.8651 63.5093L14.6846 73.4945L36.5051 51.6741L36.9404 51.4953L37.3757 51.6741L59.1962 73.4945L61.0157 63.5093L71.0009 61.6898L55.2223 45.9112ZM13.4588 61.3111L7.54521 60.2336L21.2382 46.5405L23.0268 46.9767L24.8459 49.9241L17.3053 57.4646L13.4588 61.3111ZM16.1408 68.8292L15.0633 62.9156L26.0705 51.9083L28.0652 55.1404L31.0597 53.9104L16.1408 68.8292ZM36.9403 49.042L28.9845 52.3097L27.7193 50.2594L27.6533 50.1521L26.4948 48.2751L24.4691 44.9928L20.5363 44.0334L16.1145 42.9549L16.7527 34.3826L11.1987 27.8228L16.7527 21.2628L16.1145 12.6907L24.4688 10.6529L28.9844 3.33587L36.9404 6.60343L44.8964 3.33587L49.412 10.6529L57.7663 12.6907L57.1281 21.2628L62.6821 27.8228L57.1281 34.3826L57.7663 42.9549L53.3447 44.0334L49.4119 44.9928L47.3861 48.2751L46.443 49.8031L46.1614 50.2595L44.8961 52.3097L36.9403 49.042ZM57.7399 68.8292L42.8208 53.9103L44.1648 54.4622L45.8158 55.1402L47.8103 51.9083L58.8175 62.9156L57.7399 68.8292ZM60.4218 61.311L56.5754 57.4646L49.0348 49.9241L50.8538 46.9767L52.6424 46.5406L66.3355 60.2336L60.4218 61.311Z" fill="#F4F4F4"/>
</g>
<defs>
<clipPath id="clip0">
<rect width="74" height="74" fill="white"/>
</clipPath>
</defs>
</svg>
