<svg width="325" height="232" viewBox="0 0 325 232" fill="none" xmlns="http://www.w3.org/2000/svg">
<path d="M267.496 64.0156H243.74L223.441 43.7165C219.757 40.0327 214.853 38 209.645 38H168.386C163.178 38 158.275 40.0327 154.591 43.7165L134.291 64.0156H104.465L97.2078 57.5117L91.457 64.0156H58.5039C54.909 64.0156 52 66.9246 52 70.5195V187.59C52 191.185 54.909 194.094 58.5039 194.094H267.496C271.091 194.094 274 191.185 274 187.59V70.5195C274 66.9246 271.091 64.0156 267.496 64.0156Z" fill="#424244"/>
<path d="M97.9609 90.0312C94.366 90.0312 91.457 92.9402 91.457 96.5352V161.574C91.457 165.169 94.366 168.078 97.9609 168.078C101.556 168.078 104.465 165.169 104.465 161.574V96.5352C104.465 92.9402 101.556 90.0312 97.9609 90.0312ZM97.9609 51.0078C94.366 51.0078 91.457 53.9168 91.457 57.5117V64.0156H104.465V57.5117C104.465 53.9168 101.556 51.0078 97.9609 51.0078ZM189.016 77.0234C163.914 77.0234 143.488 97.4496 143.488 122.551C143.488 147.652 163.914 168.078 189.016 168.078C214.117 168.078 234.543 147.652 234.543 122.551C234.543 97.4496 214.117 77.0234 189.016 77.0234ZM189.016 142.062C178.256 142.062 169.504 133.31 169.504 122.551C169.504 111.792 178.256 103.039 189.016 103.039C199.775 103.039 208.527 111.792 208.527 122.551C208.527 133.31 199.775 142.062 189.016 142.062Z" fill="#2E2F32"/>
</svg>
