<svg width="56" height="56" viewBox="0 0 56 56" fill="none" xmlns="http://www.w3.org/2000/svg">
<path d="M28.875 44.625H27.125V41.125C27.125 40.6971 27.4347 40.3322 27.8556 40.2622L48.125 36.8839V28.875H46.375V27.125H49C49.483 27.125 49.875 27.517 49.875 28V37.625C49.875 38.0529 49.5653 38.4178 49.1444 38.4878L28.875 41.8661V44.625Z" fill="#F7A73A"/>
<path d="M43.5 33.375C43.5 33.4429 43.4429 33.5 43.375 33.5H11.875C11.8071 33.5 11.75 33.4429 11.75 33.375V22.875C11.75 22.8071 11.8071 22.75 11.875 22.75H43.375C43.4429 22.75 43.5 22.8071 43.5 22.875V33.375Z" stroke="#F7A73A" stroke-width="1.5"/>
<path d="M30.625 53.375H25.375V46.375H30.625V53.375Z" fill="#F7A73A"/>
<path d="M9.625 0.875H11.375V18.375H9.625V0.875Z" fill="#F7A73A"/>
<path d="M44.625 9.625H46.375V18.375H44.625V9.625Z" fill="#F7A73A"/>
<path d="M44.625 0.875H46.375V2.625H44.625V0.875Z" fill="#F7A73A"/>
<path d="M44.625 4.375H46.375V7.875H44.625V4.375Z" fill="#F7A73A"/>
<path d="M14.875 1.75H16.625V13.125H14.875V1.75Z" fill="#F7A73A"/>
<path d="M20.125 13.125H21.875V18.375H20.125V13.125Z" fill="#F7A73A"/>
<path d="M20.125 48.125C20.125 48.6071 19.7321 49 19.25 49C18.7679 49 18.375 48.6071 18.375 48.125V42.875C18.375 41.4277 17.1972 40.25 15.75 40.25C14.3027 40.25 13.125 41.4277 13.125 42.875V44.625C13.125 45.1071 12.7321 45.5 12.25 45.5C11.7679 45.5 11.375 45.1071 11.375 44.625V38.5H20.125V48.125Z" fill="#F7A73A"/>
<path d="M7.875 27.125H9.625V28.875H7.875V27.125Z" fill="#F7A73A"/>
</svg>
