<svg width="74" height="74" viewBox="0 0 74 74" fill="none" xmlns="http://www.w3.org/2000/svg">
<path d="M71.1795 63.8828H65.6172V3.75781H56.9453V8.38281H17.0547V3.75781H8.38281V63.8828H2.82053L0 66.7033V70.2422H74V66.7033L71.1795 63.8828ZM8.38281 68.5078H1.73438V67.4217L3.53885 65.6172H8.38281V68.5078ZM17.0547 23.9922H19.9453V28.6172H22.2578V36.1328H17.0547V23.9922ZM43.0703 28.6172V36.1328H30.9297V28.6172H33.2422V23.9922H40.7578V28.6172H43.0703ZM42.4922 26.8828V23.9922H52.3203V26.8828H42.4922ZM50.0078 28.6172V36.1328H44.8047V28.6172H50.0078ZM31.5078 26.8828H21.6797V23.9922H31.5078V26.8828ZM29.1953 28.6172V36.1328H23.9922V28.6172H29.1953ZM17.0547 42.4922H28.0391V47.1172H31.5078V54.6328H17.0547V42.4922ZM29.7734 45.3828V42.4922H31.5078V45.3828H29.7734ZM17.0547 60.9922H22.2578V63.8828H17.0547V60.9922ZM15.3203 68.5078H10.1172V51.7422H12.7188V50.0078H10.1172V47.1172H12.7188V45.3828H10.1172V5.49219H15.3203V68.5078ZM56.9453 63.8828H51.7422V60.9922H56.9453V63.8828ZM56.9453 59.2578H50.0078V65.6172H56.9453V68.5078H17.0547V65.6172H23.9922V59.2578H17.0547V56.3672H56.9453V59.2578ZM40.7578 47.1172V50.0078H33.2422V47.1172H40.7578ZM33.2422 45.3828V42.4922H40.7578V45.3828H33.2422ZM40.7578 51.7422V54.6328H33.2422V51.7422H40.7578ZM56.9453 54.6328H42.4922V47.1172H45.9609V42.4922H56.9453V54.6328ZM42.4922 45.3828V42.4922H44.2266V45.3828H42.4922ZM56.9453 40.7578H17.0547V37.8672H56.9453V40.7578ZM56.9453 36.1328H51.7422V28.6172H54.0547V23.9922H56.9453V36.1328ZM56.9453 22.2578H17.0547V10.1172H56.9453V22.2578ZM63.8828 45.3828H61.2812V47.1172H63.8828V50.0078H61.2812V51.7422H63.8828V68.5078H58.6797V5.49219H63.8828V45.3828ZM72.2656 68.5078H65.6172V65.6172H70.4612L72.2656 67.4217V68.5078Z" fill="#F4F4F4"/>
<path d="M33.2422 13.0078H19.9453V19.3672H33.2422V13.0078ZM31.5078 17.6328H21.6797V14.7422H31.5078V17.6328Z" fill="#F4F4F4"/>
<path d="M54.0547 13.0078H40.7578V19.3672H54.0547V13.0078ZM52.3203 17.6328H42.4922V14.7422H52.3203V17.6328Z" fill="#F4F4F4"/>
</svg>
