<svg width="37" height="31" viewBox="0 0 37 31" fill="none" xmlns="http://www.w3.org/2000/svg">
<path d="M33.7951 0.595892L1.69694 13.1042C0.657277 13.5094 0.720262 15.0013 1.79047 15.3173L9.94697 17.7259L12.991 27.3849C13.309 28.3938 14.5875 28.6996 15.3276 27.9439L19.5447 23.638L27.8191 29.7116C28.8317 30.4549 30.2738 29.9027 30.5309 28.6732L36.0111 2.47247C36.2795 1.18908 35.0168 0.119821 33.7951 0.595892ZM29.7709 6.41048L14.8614 19.5949C14.7128 19.7263 14.6183 19.9082 14.5961 20.1054L14.0221 25.2082C14.0034 25.3746 13.7705 25.3966 13.7208 25.2367L11.3591 17.6267C11.2509 17.2783 11.3919 16.9008 11.7019 16.7086L29.3084 5.78885C29.7133 5.53754 30.1278 6.09493 29.7709 6.41048Z" fill="#505155"/>
</svg>
