<svg width="56" height="56" viewBox="0 0 56 56" fill="none" xmlns="http://www.w3.org/2000/svg">
<path d="M49.4922 5.57812V28.7366H6.50781V5.57812H0V50.4676H56V5.57812H49.4922ZM54.3594 48.8265H1.64062V34.2921H26.7969V32.6514H1.64062V7.21875H4.86719V30.3772H51.1328V7.21875H54.3594V48.8265Z" fill="#F7A73A"/>
<path d="M25.3293 20.8514V27.3694H26.9699V21.291L28.2504 19.0732V12.553H21.4785V19.0732L22.759 21.291V27.3694H24.3996V20.8514L23.7198 19.6735H24.9563V18.0328H23.1191V14.1936H26.6097V18.6331L25.3293 20.8514Z" fill="#F7A73A"/>
<path d="M11.3727 27.3694H13.0134V24.9397L9.11475 22.689V16.9989L10.4255 16.2422V21.799L14.0426 23.8874L17.6592 21.799V16.2422L18.97 16.9989V22.689L15.0714 24.9397V27.3694H16.712V25.8869L20.6107 23.6362V16.0517L16.0186 13.4006V20.8518L14.0426 21.993L12.0662 20.8518V13.4006L7.47412 16.0517V23.6362L11.3727 25.8869V27.3694Z" fill="#F7A73A"/>
<path d="M41.2529 27.3694V21.7148H42.5235L43.4331 20.8052V20.5984H44.3085L45.4249 21.7148H48.7686V14.5195H45.4245L44.3081 15.6359H43.4331V15.4291L42.5235 14.5195H31.3399L28.6846 17.1749V21.0602H31.342L32.6349 19.7674V18.8112L32.9763 18.4698H33.944V20.8052L34.8536 21.7144H36.1242V27.3694H37.7648V21.7144H39.6122V27.3694H41.2529ZM45.9248 16.3396L46.1042 16.1602H47.1279V20.0742H46.1042L45.9248 19.8947V16.3396ZM43.4331 17.2766H44.2842V18.9578H43.4331V17.2766ZM33.944 16.8292H32.2969L30.9943 18.1319V19.0876L30.6623 19.4196H30.3252V17.8546L32.0197 16.1602H33.944V16.8292ZM35.5846 20.0742V16.1602H41.7925V20.0742H35.5846Z" fill="#F7A73A"/>
<path d="M7.875 10.4359H48.125V12.0765H7.875V10.4359Z" fill="#F7A73A"/>
<path d="M7.875 7.54688H48.125V9.1875H7.875V7.54688Z" fill="#F7A73A"/>
<path d="M51.625 37.76H53.2656V46.9129H51.625V37.76Z" fill="#F7A73A"/>
<path d="M51.625 32.2913H53.2656V33.9319H51.625V32.2913Z" fill="#F7A73A"/>
<path d="M51.625 35.0256H53.2656V36.6663H51.625V35.0256Z" fill="#F7A73A"/>
<path d="M51.9167 13.2134H53.5574V14.854H51.9167V13.2134Z" fill="#F7A73A"/>
<path d="M51.9167 10.479H53.5574V12.1196H51.9167V10.479Z" fill="#F7A73A"/>
<path d="M51.9167 15.9478H53.5574V25.1006H51.9167V15.9478Z" fill="#F7A73A"/>
</svg>
