<svg width="56" height="56" viewBox="0 0 56 56" fill="none" xmlns="http://www.w3.org/2000/svg">
<path d="M13.0668 36.8666C9.97838 36.8666 7.4668 39.3782 7.4668 42.4666C7.4668 45.555 9.97838 48.0666 13.0668 48.0666C16.1552 48.0666 18.6668 45.555 18.6668 42.4666C18.6668 39.3782 16.1551 36.8666 13.0668 36.8666ZM13.0668 46.1999C11.0078 46.1999 9.3335 44.5255 9.3335 42.4666C9.3335 40.4076 11.0079 38.7333 13.0668 38.7333C15.1257 38.7333 16.8001 40.4077 16.8001 42.4666C16.8001 44.5255 15.1257 46.1999 13.0668 46.1999Z" fill="#F7A73A"/>
<path d="M44.7995 36.8666C41.711 36.8666 39.1995 39.3782 39.1995 42.4666C39.1995 45.555 41.711 48.0666 44.7995 48.0666C47.8879 48.0666 50.3995 45.555 50.3995 42.4666C50.3995 39.3782 47.8879 36.8666 44.7995 36.8666ZM44.7995 46.1999C42.7405 46.1999 41.0662 44.5255 41.0662 42.4666C41.0662 40.4076 42.7406 38.7333 44.7995 38.7333C46.8584 38.7333 48.5328 40.4077 48.5328 42.4666C48.5328 44.5255 46.8584 46.1999 44.7995 46.1999Z" fill="#F7A73A"/>
<path d="M55.8517 31.6951L47.4517 18.6284C47.28 18.3614 46.9841 18.2 46.6667 18.2H36.4001C35.884 18.2 35.4668 18.6181 35.4668 19.1332V42.4665C35.4668 42.9827 35.884 43.3998 36.4001 43.3998H40.1334V41.5331H37.3334V20.0667H46.1571L54.1334 32.4744V41.5334H49.4667V43.3999H55.0667C55.5828 43.3999 56 42.9828 56 42.4667V32.2C56.0001 32.0217 55.9488 31.8452 55.8517 31.6951Z" fill="#F7A73A"/>
<path d="M41.067 30.3334V23.8001H48.5337V21.9333H40.1337C39.6176 21.9333 39.2004 22.3515 39.2004 22.8666V31.2667C39.2004 31.7828 39.6176 32.1999 40.1337 32.1999H54.1337V30.3332H41.067V30.3334Z" fill="#F7A73A"/>
<path d="M36.4 11.6667H0.933297C0.418141 11.6667 0 12.0849 0 12.6V42.4667C0 42.9829 0.418141 43.4 0.933297 43.4H8.4V41.5333H1.8667V13.5333H35.4667V41.5333H17.7333V43.4H36.4C36.9161 43.4 37.3333 42.9829 37.3333 42.4667V12.6C37.3333 12.0849 36.9161 11.6667 36.4 11.6667Z" fill="#F7A73A"/>
<path d="M6.53481 37.7999H0.934814V39.6666H6.53481V37.7999Z" fill="#F7A73A"/>
<path d="M35.4678 37.7999H19.6011V39.6666H35.4678V37.7999Z" fill="#F7A73A"/>
<path d="M55.0673 37.7999H51.334V39.6666H55.0673V37.7999Z" fill="#F7A73A"/>
<path d="M36.3996 15.3999H3.73291V17.2666H36.3996V15.3999Z" fill="#F7A73A"/>
<path d="M14.001 41.5333H12.1343V43.4H14.001V41.5333Z" fill="#F7A73A"/>
<path d="M45.7324 41.5333H43.8657V43.4H45.7324V41.5333Z" fill="#F7A73A"/>
<path d="M16.7996 7.93323H3.73291V9.79993H16.7996V7.93323Z" fill="#F7A73A"/>
<path d="M1.8667 7.93323H0V9.79993H1.8667V7.93323Z" fill="#F7A73A"/>
</svg>
